# xmcd
#
# Track frame offsets:
#	150
#	21107
#	36684
#	52258
#	71497
#	88973
#	107798
#	128756
#	144335
#	159909
#	179148
#	196625
#
# Disc length: 2872 seconds
#
# Revision: 1
# Processed by: cddbd v1.5.1PL2 Copyright (c) Steve Scherf et al.
# Submitted via: audiograbber 1.83.01
#
DISCID=ae0b360c
DTITLE=Various Artist - Cb20015
DYEAR=1900
DGENRE=Country
TTITLE0=Chesney, Kenny - From Hillbilly Heaven To Honkytonk Hell (Vocals)
TTITLE1=McBride, Martina - Valentine (Vocals)
TTITLE2=Akins, Rhett - More Than Everything (Vocals)
TTITLE3=Anderson, John - Small Town (Vocals)
TTITLE4=Berry, John - Stone, The (Vocals)
TTITLE5=Mattea, Kathy - Love Travels (Vocals)
TTITLE6=Chesney, Kenny - From Hillbilly Heaven To Honkytonk Hell
TTITLE7=McBride, Martina - Valentine
TTITLE8=Akins, Rhett - More Than Everything
TTITLE9=Anderson, John - Small Town
TTITLE10=Berry, John - Stone, The
TTITLE11=Mattea, Kathy - Love Travels
EXTD=
EXTT0=
EXTT1=
EXTT2=
EXTT3=
EXTT4=
EXTT5=
EXTT6=
EXTT7=
EXTT8=
EXTT9=
EXTT10=
EXTT11=
PLAYORDER=
